#!OML:ASF I:\golf\golf\golf 2\Subject 1\2002-09-07\Subject1.ASF
:FULLY-SPECIFIED
:DEGREES
433
root -4.69252 17.9989 -2.27599 -167.764 -6.91427 -173.183
lowerback -11.5102 15.9411 13.9907
upperback -15.176 17.643 -0.208035
thorax -6.25162 6.42156 -5.6125
lowerneck -8.85523 -21.4116 -4.64402
upperneck 9.94517 -29.9295 6.52307
head 6.05674 -14.5595 -0.0418831
rclavicle -4.3832e-014 -5.62561e-014
rhumerus 100.349 23.7995 -57.6663
rradius 75.6352
rwrist 3.98699
rhand -46.4832 34.6237
rfingers 7.12502
rthumb -19.2103 5.55249
lclavicle -4.3832e-014 -5.62561e-014
lhumerus 67.9006 20.7259 51.1562
lradius 76.316
lwrist 10.5074
lhand -31.3537 15.9553
lfingers 7.12502
lthumb -184.625 -494.115
rfemur 20.8352 -7.8723 25.5254
rtibia 5.7159
rfoot 38.3111 -19.6053
rtoes 15.8989
lfemur -25.7793 -20.3461 -11.3011
ltibia 29.2487
lfoot 30.6254 -45.7213
ltoes 53.7156
434
root -4.68882 18.0015 -2.26739 -167.682 -6.78057 -173.203
lowerback -11.438 15.9455 13.9973
upperback -15.1536 17.6697 -0.226284
thorax -6.25067 6.43772 -5.64274
lowerneck -8.78715 -21.3582 -4.81867
upperneck 9.88678 -29.8452 6.64443
head 6.067 -14.5176 0.0215327
rclavicle 1.92026e-013 1.16687e-013
rhumerus 99.9417 23.5613 -57.7692
rradius 75.0399
rwrist 3.23295
rhand -46.5604 34.2732
rfingers 7.12502
rthumb -19.2846 5.20935
lclavicle 1.92026e-013 1.16687e-013
lhumerus 67.8215 20.2278 50.664
lradius 75.4881
lwrist 10.8973
lhand -31.0327 15.8813
lfingers 7.12502
lthumb -184.315 -494.183
rfemur 20.6025 -7.74443 25.5014
rtibia 5.99735
rfoot 37.9409 -19.9618
rtoes 16.7098
lfemur -25.8425 -20.3719 -11.2724
ltibia 29.1807
lfoot 30.7659 -45.3694
ltoes 53.9178
435
root -4.68599 18.0064 -2.25603 -167.557 -6.57683 -173.291
lowerback -11.3823 15.9237 13.9429
upperback -15.1221 17.6621 -0.242008
thorax -6.25199 6.44208 -5.64568
lowerneck -8.80978 -21.2624 -4.86925
upperneck 9.91497 -29.6954 6.62297
head 6.07571 -14.4444 0.0337198
rclavicle -4.58199e-014 -3.8763e-014
rhumerus 99.4896 23.3729 -57.9438
rradius 74.5851
rwrist 2.40218
rhand -46.297 34.0824
rfingers 7.12502
rthumb -19.0313 4.9935
lclavicle -4.58199e-014 -3.8763e-014
lhumerus 67.6918 19.8244 50.2131
lradius 74.7229
lwrist 11.3973
lhand -30.4205 15.6985
lfingers 7.12502
lthumb -183.723 -494.354
rfemur 20.2915 -7.5574 25.3927
rtibia 6.35096
rfoot 37.57 -20.0731
rtoes 17.0719
lfemur -25.9223 -20.3694 -11.3238
ltibia 29.0863
lfoot 30.4011 -45.3267
ltoes 53.8406
436
root -4.68032 18.0105 -2.2431 -167.501 -6.31728 -173.366
lowerback -11.2707 15.826 13.8273
upperback -15.0345 17.5772 -0.165793
thorax -6.27621 6.42134 -5.55214
lowerneck -8.86988 -21.1265 -4.77983
upperneck 9.82315 -29.466 6.51873
head 6.01515 -14.3359 0.0300243
rclavicle -1.61413e-013 -7.95139e-014
rhumerus 99.0895 23.5554 -58.3032
rradius 74.1643
rwrist 1.61157
rhand -45.5683 33.9572
rfingers 7.12502
rthumb -18.3304 4.8009
lclavicle -1.61413e-013 -7.95139e-014
lhumerus 67.5416 19.5855 49.6488
lradius 73.9052
lwrist 12.2039
lhand -29.9451 15.3538
lfingers 7.12502
lthumb -183.264 -494.691
rfemur 20.0691 -7.33112 25.3093
rtibia 6.67467
rfoot 37.3799 -19.7546
rtoes 16.4133
lfemur -25.9212 -20.3347 -11.3845
ltibia 28.993
lfoot 29.8723 -45.3843
ltoes 53.6103
437
root -4.67257 18.0137 -2.23144 -167.435 -6.08835 -173.391
lowerback -11.1667 15.7447 13.7328
upperback -14.9603 17.5092 -0.0972566
thorax -6.30157 6.40514 -5.47151
lowerneck -8.91798 -21.0216 -4.76372
upperneck 9.77307 -29.3018 6.5074
head 5.99448 -14.2548 0.0440115
rclavicle -2.38542e-014 -5.32743e-014
rhumerus 98.7205 23.6909 -58.5585
rradius 73.6369
rwrist 0.968381
rhand -45.2301 33.7851
rfingers 7.12502
rthumb -18.005 4.59849
lclavicle -2.38542e-014 -5.32743e-014
lhumerus 67.477 19.2672 49.068
lradius 73.0373
lwrist 13.2325
lhand -29.8128 15.108
lfingers 7.12502
lthumb -183.137 -494.935
rfemur 19.8968 -7.12893 25.3011
rtibia 6.85627
rfoot 37.2578 -19.3797
rtoes 15.0407
lfemur -25.969 -20.3194 -11.3597
ltibia 28.9448
lfoot 29.5396 -45.3218
ltoes 53.4754
438
root -4.66478 18.0172 -2.22076 -167.383 -5.91211 -173.289
lowerback -10.9288 15.8204 13.8248
upperback -14.8812 17.6768 -0.096777
thorax -6.28377 6.49856 -5.52591
lowerneck -9.29735 -21.1273 -5.01322
upperneck 9.94178 -29.4026 6.53324
head 6.15054 -14.2801 0.00271352
rclavicle -2.62396e-014 -7.95139e-015
rhumerus 98.2851 23.3053 -58.4771
rradius 73.0699
rwrist 0.32192
rhand -45.1437 33.9048
rfingers 7.12502
rthumb -17.9219 4.71056
lclavicle -2.62396e-014 -7.95139e-015
lhumerus 67.7637 18.6297 49.0414
lradius 72.1743
lwrist 14.0186
lhand -29.4711 14.9139
lfingers 7.12502
lthumb -182.807 -495.125
rfemur 19.7897 -6.95218 25.4334
rtibia 6.90003
rfoot 37.1234 -19.416
rtoes 13.8084
lfemur -26.056 -20.284 -11.1903
ltibia 28.9573
lfoot 29.1845 -45.3673
ltoes 53.2894
439
root -4.65707 18.0205 -2.20814 -167.43 -5.78377 -173.023
lowerback -10.9627 15.4956 13.9726
upperback -14.8434 17.2078 0.137582
thorax -6.34293 6.24327 -5.4328
lowerneck -9.15732 -20.6828 -4.21144
upperneck 9.88266 -28.8641 6.2556
head 5.93253 -14.0385 -0.0418434
rclavicle 2.34566e-014 2.90226e-014
rhumerus 97.9978 23.9481 -59.2916
rradius 72.4992
rwrist -0.201213
rhand -44.9439 34.0012
rfingers 7.12502
rthumb -17.7297 4.78949
lclavicle 2.34566e-014 2.90226e-014
lhumerus 67.0536 18.5919 47.6351
lradius 71.3334
lwrist 14.7331
lhand -28.8321 14.7058
lfingers 7.12502
lthumb -182.19 -495.326
rfemur 19.7948 -6.8 25.7436
rtibia 6.88745
rfoot 36.975 -19.6492
rtoes 13.2749
lfemur -26.0791 -20.1906 -10.8774
ltibia 28.9958
lfoot 29.0417 -45.4067
ltoes 53.222
